<svg fill="none" height="32" viewBox="0 0 32 32" width="32" xmlns="http://www.w3.org/2000/svg" xmlns:xlink="http://www.w3.org/1999/xlink"><linearGradient id="a" gradientUnits="userSpaceOnUse" x1="6" x2="26.5833" y1="11.5" y2="11.5"><stop offset="0" stop-color="#103a3b"/><stop offset="1" stop-color="#116b6e"/></linearGradient><linearGradient id="b" gradientUnits="userSpaceOnUse" x1="18" x2="32" y1="13" y2="21"><stop offset="0" stop-color="#1d9097"/><stop offset="1" stop-color="#29bbc2"/></linearGradient><linearGradient id="c" gradientUnits="userSpaceOnUse" x1="12" x2="23" y1="21.5" y2="26.5"><stop offset="0" stop-color="#28a6b5"/><stop offset="1" stop-color="#31d6ec"/></linearGradient><linearGradient id="d" gradientUnits="userSpaceOnUse" x1="0" x2="19.5" y1="16" y2="16"><stop offset="0" stop-color="#105557"/><stop offset="1" stop-color="#116b6e"/></linearGradient><mask id="e" height="24" maskUnits="userSpaceOnUse" width="13" x="10" y="6"><path d="m23 23.5c0 3.5899-2.9101 6.5-6.5 6.5s-6.5-2.9101-6.5-6.5c0-3.5898 0-17.5 0-17.5h13z" fill="#c4c4c4"/></mask><circle cx="15.5" cy="11.5" fill="url(#a)" r="9.5"/><circle cx="24" cy="17" fill="url(#b)" r="8"/><g mask="url(#e)"><circle cx="16.5" cy="23.5" fill="url(#c)" r="6.5"/><path d="m7 12c0-1.6569 1.34315-3 3-3h7c1.6569 0 3 1.3431 3 3v12c0 1.6569-1.3431 3-3 3h-10z" fill="#000" fill-opacity=".3"/></g><rect fill="url(#d)" height="18" rx="2" width="18" y="7"/><path d="m13 18.1229c0-1.5503-1.0398-2.2346-3.20335-3.0307-1.69392-.6285-2.09644-.8101-2.09644-1.4106 0-.5168.50314-.866 1.35849-.866.87212 0 1.6939.2933 2.6164.7961l.9392-1.662c-.9896-.6145-2.1636-.9497-3.58914-.9497-2.1803 0-3.74004 1.1173-3.74004 2.8212 0 1.7458 1.24109 2.3045 3.32075 3.0447 1.66033.5866 1.97903.8799 1.97903 1.3967 0 .6145-.587.9218-1.50943.9218-1.09015 0-2.04612-.3771-3.00209-.9917l-1.07338 1.5922c1.174.8101 2.63312 1.2151 4.12579 1.2151 2.24741 0 3.87421-1.0615 3.87421-2.8771z" fill="#fff"/></svg>