<svg xmlns="http://www.w3.org/2000/svg" width="408" height="477" fill="none"><circle cx="287.5" cy="356.5" r="120.5" fill="#4B7CFD"/><circle cx="120.5" cy="356.5" r="120.5" fill="#3A64FF"/><path fill="#1A5AFF" fill-rule="evenodd" d="M203.997 443.733c-22.8-21.923-36.989-52.738-36.989-86.866 0-34.129 14.189-64.943 36.989-86.867 22.8 21.924 36.989 52.738 36.989 86.867 0 34.128-14.189 64.943-36.989 86.866Z" clip-rule="evenodd"/><path fill="#195AFF" d="m204 288-65.818-115.5h131.636L204 288Z" opacity=".4"/><path fill="#fff" d="M60.133 337.436v7.776c0 .852.222 1.506.666 1.962.444.444 1.068.666 1.872.666.816 0 1.446-.222 1.89-.666.444-.456.666-1.11.666-1.962v-7.776h2.538v7.758c0 1.068-.234 1.974-.702 2.718a4.344 4.344 0 0 1-1.854 1.656c-.768.372-1.626.558-2.574.558-.936 0-1.788-.186-2.556-.558a4.277 4.277 0 0 1-1.8-1.656c-.444-.744-.666-1.65-.666-2.718v-7.758h2.52Zm14.405 12.69c-.876 0-1.668-.15-2.376-.45-.696-.3-1.248-.732-1.656-1.296-.408-.564-.618-1.23-.63-1.998h2.7c.036.516.216.924.54 1.224.336.3.792.45 1.368.45.588 0 1.05-.138 1.386-.414.336-.288.504-.66.504-1.116 0-.372-.114-.678-.342-.918a2.29 2.29 0 0 0-.864-.558 11.83 11.83 0 0 0-1.404-.468c-.816-.24-1.482-.474-1.998-.702a3.703 3.703 0 0 1-1.314-1.062c-.36-.48-.54-1.116-.54-1.908 0-.744.186-1.392.558-1.944.372-.552.894-.972 1.566-1.26.672-.3 1.44-.45 2.304-.45 1.296 0 2.346.318 3.15.954.816.624 1.266 1.5 1.35 2.628h-2.772a1.402 1.402 0 0 0-.558-1.062c-.336-.288-.786-.432-1.35-.432-.492 0-.888.126-1.188.378-.288.252-.432.618-.432 1.098 0 .336.108.618.324.846.228.216.504.396.828.54.336.132.804.288 1.404.468.816.24 1.482.48 1.998.72s.96.6 1.332 1.08c.372.48.558 1.11.558 1.89 0 .672-.174 1.296-.522 1.872-.348.576-.858 1.038-1.53 1.386-.672.336-1.47.504-2.394.504Zm14.299-7.614v2.124h-7.632v-2.124h7.632Zm9.954 1.044c.708.132 1.29.486 1.746 1.062.456.576.684 1.236.684 1.98 0 .672-.168 1.266-.504 1.782-.324.504-.798.9-1.422 1.188-.624.288-1.362.432-2.214.432h-5.418v-12.564h5.184c.852 0 1.584.138 2.196.414.624.276 1.092.66 1.404 1.152.324.492.486 1.05.486 1.674 0 .732-.198 1.344-.594 1.836-.384.492-.9.84-1.548 1.044Zm-4.608-.936h2.304c.6 0 1.062-.132 1.386-.396.324-.276.486-.666.486-1.17 0-.504-.162-.894-.486-1.17-.324-.276-.786-.414-1.386-.414h-2.304v3.15Zm2.538 5.328c.612 0 1.086-.144 1.422-.432.348-.288.522-.696.522-1.224 0-.54-.18-.96-.54-1.26-.36-.312-.846-.468-1.458-.468h-2.484v3.384h2.538Zm5.86-2.97c0-1.008.198-1.902.594-2.682.408-.78.954-1.38 1.638-1.8.696-.42 1.47-.63 2.322-.63.744 0 1.392.15 1.944.45.564.3 1.014.678 1.35 1.134v-1.422h2.538V350h-2.538v-1.458c-.324.468-.774.858-1.35 1.17-.564.3-1.218.45-1.962.45-.84 0-1.608-.216-2.304-.648-.684-.432-1.23-1.038-1.638-1.818-.396-.792-.594-1.698-.594-2.718Zm7.848.036c0-.612-.12-1.134-.36-1.566a2.463 2.463 0 0 0-.972-1.008 2.548 2.548 0 0 0-1.314-.36c-.468 0-.9.114-1.296.342-.396.228-.72.564-.972 1.008-.24.432-.36.948-.36 1.548 0 .6.12 1.128.36 1.584.252.444.576.786.972 1.026.408.24.84.36 1.296.36a2.65 2.65 0 0 0 1.314-.342c.408-.24.732-.576.972-1.008.24-.444.36-.972.36-1.584Zm8.816 5.148c-.816 0-1.548-.144-2.196-.432-.648-.3-1.164-.702-1.548-1.206a3.069 3.069 0 0 1-.612-1.674h2.538c.048.384.234.702.558.954.336.252.75.378 1.242.378.48 0 .852-.096 1.116-.288.276-.192.414-.438.414-.738 0-.324-.168-.564-.504-.72-.324-.168-.846-.348-1.566-.54-.744-.18-1.356-.366-1.836-.558a3.263 3.263 0 0 1-1.224-.882c-.336-.396-.504-.93-.504-1.602 0-.552.156-1.056.468-1.512.324-.456.78-.816 1.368-1.08.6-.264 1.302-.396 2.106-.396 1.188 0 2.136.3 2.844.9.708.588 1.098 1.386 1.17 2.394h-2.412a1.265 1.265 0 0 0-.504-.936c-.288-.24-.678-.36-1.17-.36-.456 0-.81.084-1.062.252a.81.81 0 0 0-.36.702c0 .336.168.594.504.774.336.168.858.342 1.566.522.72.18 1.314.366 1.782.558.468.192.87.492 1.206.9.348.396.528.924.54 1.584 0 .576-.162 1.092-.486 1.548-.312.456-.768.816-1.368 1.08-.588.252-1.278.378-2.07.378Zm15.262-5.364c0 .36-.024.684-.072.972h-7.29c.06.72.312 1.284.756 1.692.444.408.99.612 1.638.612.936 0 1.602-.402 1.998-1.206h2.718a4.588 4.588 0 0 1-1.656 2.376c-.816.612-1.818.918-3.006.918-.96 0-1.824-.21-2.592-.63a4.637 4.637 0 0 1-1.782-1.818c-.42-.78-.63-1.68-.63-2.7 0-1.032.21-1.938.63-2.718a4.396 4.396 0 0 1 1.764-1.8c.756-.42 1.626-.63 2.61-.63.948 0 1.794.204 2.538.612.756.408 1.338.99 1.746 1.746.42.744.63 1.602.63 2.574Zm-2.61-.72c-.012-.648-.246-1.164-.702-1.548-.456-.396-1.014-.594-1.674-.594-.624 0-1.152.192-1.584.576-.42.372-.678.894-.774 1.566h4.734Zm3.801.9c0-1.008.198-1.902.594-2.682.408-.78.96-1.38 1.656-1.8.696-.42 1.47-.63 2.322-.63.648 0 1.266.144 1.854.432.588.276 1.056.648 1.404 1.116v-4.734h2.556V350h-2.556v-1.476c-.312.492-.75.888-1.314 1.188-.564.3-1.218.45-1.962.45-.84 0-1.608-.216-2.304-.648-.696-.432-1.248-1.038-1.656-1.818-.396-.792-.594-1.698-.594-2.718Zm7.848.036c0-.612-.12-1.134-.36-1.566a2.463 2.463 0 0 0-.972-1.008 2.548 2.548 0 0 0-1.314-.36c-.468 0-.9.114-1.296.342-.396.228-.72.564-.972 1.008-.24.432-.36.948-.36 1.548 0 .6.12 1.128.36 1.584.252.444.576.786.972 1.026.408.24.84.36 1.296.36a2.65 2.65 0 0 0 1.314-.342c.408-.24.732-.576.972-1.008.24-.444.36-.972.36-1.584ZM77.718 370.7c0-1.236.276-2.34.828-3.312a5.976 5.976 0 0 1 2.286-2.286c.972-.552 2.058-.828 3.258-.828 1.404 0 2.634.36 3.69 1.08 1.056.72 1.794 1.716 2.214 2.988h-2.898c-.288-.6-.696-1.05-1.224-1.35-.516-.3-1.116-.45-1.8-.45-.732 0-1.386.174-1.962.522a3.519 3.519 0 0 0-1.332 1.44c-.312.624-.468 1.356-.468 2.196 0 .828.156 1.56.468 2.196.324.624.768 1.11 1.332 1.458.576.336 1.23.504 1.962.504.684 0 1.284-.15 1.8-.45.528-.312.936-.768 1.224-1.368h2.898c-.42 1.284-1.158 2.286-2.214 3.006-1.044.708-2.274 1.062-3.69 1.062-1.2 0-2.286-.27-3.258-.81a6.146 6.146 0 0 1-2.286-2.286c-.552-.972-.828-2.076-.828-3.312Zm16.948-7.02V377h-2.52v-13.32h2.52Zm3.768 2.16c-.444 0-.816-.138-1.116-.414a1.444 1.444 0 0 1-.432-1.062c0-.42.144-.768.432-1.044.3-.288.672-.432 1.116-.432.444 0 .81.144 1.098.432.3.276.45.624.45 1.044 0 .42-.15.774-.45 1.062-.288.276-.654.414-1.098.414Zm1.242 1.188V377h-2.52v-9.972h2.52Zm11.76 4.77c0 .36-.024.684-.072.972h-7.29c.06.72.312 1.284.756 1.692.444.408.99.612 1.638.612.936 0 1.602-.402 1.998-1.206h2.718a4.588 4.588 0 0 1-1.656 2.376c-.816.612-1.818.918-3.006.918-.96 0-1.824-.21-2.592-.63a4.637 4.637 0 0 1-1.782-1.818c-.42-.78-.63-1.68-.63-2.7 0-1.032.21-1.938.63-2.718a4.396 4.396 0 0 1 1.764-1.8c.756-.42 1.626-.63 2.61-.63.948 0 1.794.204 2.538.612.756.408 1.338.99 1.746 1.746.42.744.63 1.602.63 2.574Zm-2.61-.72c-.012-.648-.246-1.164-.702-1.548-.456-.396-1.014-.594-1.674-.594-.624 0-1.152.192-1.584.576-.42.372-.678.894-.774 1.566h4.734Zm9.975-4.194c1.188 0 2.148.378 2.88 1.134.732.744 1.098 1.788 1.098 3.132V377h-2.52v-5.508c0-.792-.198-1.398-.594-1.818-.396-.432-.936-.648-1.62-.648-.696 0-1.248.216-1.656.648-.396.42-.594 1.026-.594 1.818V377h-2.52v-9.972h2.52v1.242a3.417 3.417 0 0 1 1.278-1.008 3.96 3.96 0 0 1 1.728-.378Zm9.309 2.214v4.824c0 .336.078.582.234.738.168.144.444.216.828.216h1.17V377h-1.584c-2.124 0-3.186-1.032-3.186-3.096v-4.806h-1.188v-2.07h1.188v-2.466h2.538v2.466h2.232v2.07h-2.232Z"/><circle cx="203.5" cy="99.5" r="99.5" fill="#1355FF"/><path fill="#fff" d="M159.633 66.436v7.776c0 .852.222 1.506.666 1.962.444.444 1.068.666 1.872.666.816 0 1.446-.222 1.89-.666.444-.456.666-1.11.666-1.962v-7.776h2.538v7.758c0 1.068-.234 1.974-.702 2.718a4.344 4.344 0 0 1-1.854 1.656c-.768.372-1.626.558-2.574.558-.936 0-1.788-.186-2.556-.558a4.277 4.277 0 0 1-1.8-1.656c-.444-.744-.666-1.65-.666-2.718v-7.758h2.52Zm14.405 12.69c-.876 0-1.668-.15-2.376-.45-.696-.3-1.248-.732-1.656-1.296-.408-.564-.618-1.23-.63-1.998h2.7c.036.516.216.924.54 1.224.336.3.792.45 1.368.45.588 0 1.05-.138 1.386-.414.336-.288.504-.66.504-1.116 0-.372-.114-.678-.342-.918a2.29 2.29 0 0 0-.864-.558 11.83 11.83 0 0 0-1.404-.468c-.816-.24-1.482-.474-1.998-.702a3.703 3.703 0 0 1-1.314-1.062c-.36-.48-.54-1.116-.54-1.908 0-.744.186-1.392.558-1.944.372-.552.894-.972 1.566-1.26.672-.3 1.44-.45 2.304-.45 1.296 0 2.346.318 3.15.954.816.624 1.266 1.5 1.35 2.628h-2.772a1.402 1.402 0 0 0-.558-1.062c-.336-.288-.786-.432-1.35-.432-.492 0-.888.126-1.188.378-.288.252-.432.618-.432 1.098 0 .336.108.618.324.846.228.216.504.396.828.54.336.132.804.288 1.404.468.816.24 1.482.48 1.998.72s.96.6 1.332 1.08c.372.48.558 1.11.558 1.89 0 .672-.174 1.296-.522 1.872-.348.576-.858 1.038-1.53 1.386-.672.336-1.47.504-2.394.504Zm14.299-7.614v2.124h-7.632v-2.124h7.632Zm9.954 1.044c.708.132 1.29.486 1.746 1.062.456.576.684 1.236.684 1.98 0 .672-.168 1.266-.504 1.782-.324.504-.798.9-1.422 1.188-.624.288-1.362.432-2.214.432h-5.418V66.436h5.184c.852 0 1.584.138 2.196.414.624.276 1.092.66 1.404 1.152.324.492.486 1.05.486 1.674 0 .732-.198 1.344-.594 1.836-.384.492-.9.84-1.548 1.044Zm-4.608-.936h2.304c.6 0 1.062-.132 1.386-.396.324-.276.486-.666.486-1.17 0-.504-.162-.894-.486-1.17-.324-.276-.786-.414-1.386-.414h-2.304v3.15Zm2.538 5.328c.612 0 1.086-.144 1.422-.432.348-.288.522-.696.522-1.224 0-.54-.18-.96-.54-1.26-.36-.312-.846-.468-1.458-.468h-2.484v3.384h2.538Zm5.86-2.97c0-1.008.198-1.902.594-2.682.408-.78.954-1.38 1.638-1.8.696-.42 1.47-.63 2.322-.63.744 0 1.392.15 1.944.45.564.3 1.014.678 1.35 1.134v-1.422h2.538V79h-2.538v-1.458c-.324.468-.774.858-1.35 1.17-.564.3-1.218.45-1.962.45-.84 0-1.608-.216-2.304-.648-.684-.432-1.23-1.038-1.638-1.818-.396-.792-.594-1.698-.594-2.718Zm7.848.036c0-.612-.12-1.134-.36-1.566a2.463 2.463 0 0 0-.972-1.008 2.548 2.548 0 0 0-1.314-.36c-.468 0-.9.114-1.296.342-.396.228-.72.564-.972 1.008-.24.432-.36.948-.36 1.548 0 .6.12 1.128.36 1.584.252.444.576.786.972 1.026.408.24.84.36 1.296.36a2.65 2.65 0 0 0 1.314-.342c.408-.24.732-.576.972-1.008.24-.444.36-.972.36-1.584Zm8.816 5.148c-.816 0-1.548-.144-2.196-.432-.648-.3-1.164-.702-1.548-1.206a3.069 3.069 0 0 1-.612-1.674h2.538c.048.384.234.702.558.954.336.252.75.378 1.242.378.48 0 .852-.096 1.116-.288.276-.192.414-.438.414-.738 0-.324-.168-.564-.504-.72-.324-.168-.846-.348-1.566-.54-.744-.18-1.356-.366-1.836-.558a3.263 3.263 0 0 1-1.224-.882c-.336-.396-.504-.93-.504-1.602 0-.552.156-1.056.468-1.512.324-.456.78-.816 1.368-1.08.6-.264 1.302-.396 2.106-.396 1.188 0 2.136.3 2.844.9.708.588 1.098 1.386 1.17 2.394h-2.412a1.265 1.265 0 0 0-.504-.936c-.288-.24-.678-.36-1.17-.36-.456 0-.81.084-1.062.252a.81.81 0 0 0-.36.702c0 .336.168.594.504.774.336.168.858.342 1.566.522.72.18 1.314.366 1.782.558.468.192.87.492 1.206.9.348.396.528.924.54 1.584 0 .576-.162 1.092-.486 1.548-.312.456-.768.816-1.368 1.08-.588.252-1.278.378-2.07.378Zm15.262-5.364c0 .36-.024.684-.072.972h-7.29c.06.72.312 1.284.756 1.692.444.408.99.612 1.638.612.936 0 1.602-.402 1.998-1.206h2.718a4.588 4.588 0 0 1-1.656 2.376c-.816.612-1.818.918-3.006.918-.96 0-1.824-.21-2.592-.63a4.637 4.637 0 0 1-1.782-1.818c-.42-.78-.63-1.68-.63-2.7 0-1.032.21-1.938.63-2.718a4.396 4.396 0 0 1 1.764-1.8c.756-.42 1.626-.63 2.61-.63.948 0 1.794.204 2.538.612.756.408 1.338.99 1.746 1.746.42.744.63 1.602.63 2.574Zm-2.61-.72c-.012-.648-.246-1.164-.702-1.548-.456-.396-1.014-.594-1.674-.594-.624 0-1.152.192-1.584.576-.42.372-.678.894-.774 1.566h4.734Zm3.801.9c0-1.008.198-1.902.594-2.682.408-.78.96-1.38 1.656-1.8.696-.42 1.47-.63 2.322-.63.648 0 1.266.144 1.854.432.588.276 1.056.648 1.404 1.116V65.68h2.556V79h-2.556v-1.476c-.312.492-.75.888-1.314 1.188-.564.3-1.218.45-1.962.45-.84 0-1.608-.216-2.304-.648-.696-.432-1.248-1.038-1.656-1.818-.396-.792-.594-1.698-.594-2.718Zm7.848.036c0-.612-.12-1.134-.36-1.566a2.463 2.463 0 0 0-.972-1.008 2.548 2.548 0 0 0-1.314-.36c-.468 0-.9.114-1.296.342-.396.228-.72.564-.972 1.008-.24.432-.36.948-.36 1.548 0 .6.12 1.128.36 1.584.252.444.576.786.972 1.026.408.24.84.36 1.296.36a2.65 2.65 0 0 0 1.314-.342c.408-.24.732-.576.972-1.008.24-.444.36-.972.36-1.584Zm-86.929 19.422V106h-2.52v-8.172L150.231 106h-1.908l-3.384-8.172V106h-2.52V93.436h2.862l3.996 9.342 3.996-9.342h2.844Zm1.843 7.542c0-1.008.198-1.902.594-2.682.408-.78.954-1.38 1.638-1.8.696-.42 1.47-.63 2.322-.63.744 0 1.392.15 1.944.45.564.3 1.014.678 1.35 1.134v-1.422h2.538V106h-2.538v-1.458c-.324.468-.774.858-1.35 1.17-.564.3-1.218.45-1.962.45-.84 0-1.608-.216-2.304-.648-.684-.432-1.23-1.038-1.638-1.818-.396-.792-.594-1.698-.594-2.718Zm7.848.036c0-.612-.12-1.134-.36-1.566a2.463 2.463 0 0 0-.972-1.008 2.548 2.548 0 0 0-1.314-.36c-.468 0-.9.114-1.296.342-.396.228-.72.564-.972 1.008-.24.432-.36.948-.36 1.548 0 .6.12 1.128.36 1.584.252.444.576.786.972 1.026.408.24.84.36 1.296.36a2.65 2.65 0 0 0 1.314-.342c.408-.24.732-.576.972-1.008.24-.444.36-.972.36-1.584Zm10.525-5.13c1.188 0 2.148.378 2.88 1.134.732.744 1.098 1.788 1.098 3.132V106h-2.52v-5.508c0-.792-.198-1.398-.594-1.818-.396-.432-.936-.648-1.62-.648-.696 0-1.248.216-1.656.648-.396.42-.594 1.026-.594 1.818V106h-2.52v-9.972h2.52v1.242a3.417 3.417 0 0 1 1.278-1.008 3.96 3.96 0 0 1 1.728-.378Zm5.727 5.094c0-1.008.198-1.902.594-2.682.408-.78.954-1.38 1.638-1.8.696-.42 1.47-.63 2.322-.63.744 0 1.392.15 1.944.45.564.3 1.014.678 1.35 1.134v-1.422h2.538V106h-2.538v-1.458c-.324.468-.774.858-1.35 1.17-.564.3-1.218.45-1.962.45-.84 0-1.608-.216-2.304-.648-.684-.432-1.23-1.038-1.638-1.818-.396-.792-.594-1.698-.594-2.718Zm7.848.036c0-.612-.12-1.134-.36-1.566a2.463 2.463 0 0 0-.972-1.008 2.548 2.548 0 0 0-1.314-.36c-.468 0-.9.114-1.296.342-.396.228-.72.564-.972 1.008-.24.432-.36.948-.36 1.548 0 .6.12 1.128.36 1.584.252.444.576.786.972 1.026.408.24.84.36 1.296.36a2.65 2.65 0 0 0 1.314-.342c.408-.24.732-.576.972-1.008.24-.444.36-.972.36-1.584Zm8.905-5.148c.744 0 1.398.15 1.962.45.564.288 1.008.666 1.332 1.134v-1.422h2.538v10.044c0 .924-.186 1.746-.558 2.466a4.075 4.075 0 0 1-1.674 1.728c-.744.432-1.644.648-2.7.648-1.416 0-2.58-.33-3.492-.99-.9-.66-1.41-1.56-1.53-2.7h2.502c.132.456.414.816.846 1.08.444.276.978.414 1.602.414.732 0 1.326-.222 1.782-.666.456-.432.684-1.092.684-1.98v-1.548c-.324.468-.774.858-1.35 1.17-.564.312-1.212.468-1.944.468-.84 0-1.608-.216-2.304-.648-.696-.432-1.248-1.038-1.656-1.818-.396-.792-.594-1.698-.594-2.718 0-1.008.198-1.902.594-2.682.408-.78.954-1.38 1.638-1.8.696-.42 1.47-.63 2.322-.63Zm3.294 5.148c0-.612-.12-1.134-.36-1.566a2.463 2.463 0 0 0-.972-1.008 2.548 2.548 0 0 0-1.314-.36c-.468 0-.9.114-1.296.342-.396.228-.72.564-.972 1.008-.24.432-.36.948-.36 1.548 0 .6.12 1.128.36 1.584.252.444.576.786.972 1.026.408.24.84.36 1.296.36a2.65 2.65 0 0 0 1.314-.342c.408-.24.732-.576.972-1.008.24-.444.36-.972.36-1.584Zm14.269-.216c0 .36-.024.684-.072.972h-7.29c.06.72.312 1.284.756 1.692.444.408.99.612 1.638.612.936 0 1.602-.402 1.998-1.206h2.718a4.588 4.588 0 0 1-1.656 2.376c-.816.612-1.818.918-3.006.918-.96 0-1.824-.21-2.592-.63a4.637 4.637 0 0 1-1.782-1.818c-.42-.78-.63-1.68-.63-2.7 0-1.032.21-1.938.63-2.718a4.396 4.396 0 0 1 1.764-1.8c.756-.42 1.626-.63 2.61-.63.948 0 1.794.204 2.538.612.756.408 1.338.99 1.746 1.746.42.744.63 1.602.63 2.574Zm-2.61-.72c-.012-.648-.246-1.164-.702-1.548-.456-.396-1.014-.594-1.674-.594-.624 0-1.152.192-1.584.576-.42.372-.678.894-.774 1.566h4.734Zm16.834-4.194c1.224 0 2.208.378 2.952 1.134.756.744 1.134 1.788 1.134 3.132V106h-2.52v-5.508c0-.78-.198-1.374-.594-1.782-.396-.42-.936-.63-1.62-.63s-1.23.21-1.638.63c-.396.408-.594 1.002-.594 1.782V106h-2.52v-5.508c0-.78-.198-1.374-.594-1.782-.396-.42-.936-.63-1.62-.63-.696 0-1.248.21-1.656.63-.396.408-.594 1.002-.594 1.782V106h-2.52v-9.972h2.52v1.206c.324-.42.738-.75 1.242-.99.516-.24 1.08-.36 1.692-.36.78 0 1.476.168 2.088.504a3.412 3.412 0 0 1 1.422 1.404 3.626 3.626 0 0 1 1.404-1.386 4.073 4.073 0 0 1 2.016-.522Zm15.747 4.914c0 .36-.024.684-.072.972h-7.29c.06.72.312 1.284.756 1.692.444.408.99.612 1.638.612.936 0 1.602-.402 1.998-1.206h2.718a4.588 4.588 0 0 1-1.656 2.376c-.816.612-1.818.918-3.006.918-.96 0-1.824-.21-2.592-.63a4.637 4.637 0 0 1-1.782-1.818c-.42-.78-.63-1.68-.63-2.7 0-1.032.21-1.938.63-2.718a4.396 4.396 0 0 1 1.764-1.8c.756-.42 1.626-.63 2.61-.63.948 0 1.794.204 2.538.612.756.408 1.338.99 1.746 1.746.42.744.63 1.602.63 2.574Zm-2.61-.72c-.012-.648-.246-1.164-.702-1.548-.456-.396-1.014-.594-1.674-.594-.624 0-1.152.192-1.584.576-.42.372-.678.894-.774 1.566h4.734Zm9.975-4.194c1.188 0 2.148.378 2.88 1.134.732.744 1.098 1.788 1.098 3.132V106h-2.52v-5.508c0-.792-.198-1.398-.594-1.818-.396-.432-.936-.648-1.62-.648-.696 0-1.248.216-1.656.648-.396.42-.594 1.026-.594 1.818V106h-2.52v-9.972h2.52v1.242a3.417 3.417 0 0 1 1.278-1.008 3.96 3.96 0 0 1 1.728-.378Zm9.309 2.214v4.824c0 .336.078.582.234.738.168.144.444.216.828.216h1.17V106h-1.584c-2.124 0-3.186-1.032-3.186-3.096v-4.806h-1.188v-2.07h1.188v-2.466h2.538v2.466h2.232v2.07h-2.232Zm-92.407 17.856-4.86 20.304h-2.466l4.86-20.304h2.466Zm6.342 17.172c-.876 0-1.668-.15-2.376-.45-.696-.3-1.248-.732-1.656-1.296-.408-.564-.618-1.23-.63-1.998h2.7c.036.516.216.924.54 1.224.336.3.792.45 1.368.45.588 0 1.05-.138 1.386-.414.336-.288.504-.66.504-1.116 0-.372-.114-.678-.342-.918a2.29 2.29 0 0 0-.864-.558 11.83 11.83 0 0 0-1.404-.468c-.816-.24-1.482-.474-1.998-.702a3.703 3.703 0 0 1-1.314-1.062c-.36-.48-.54-1.116-.54-1.908 0-.744.186-1.392.558-1.944.372-.552.894-.972 1.566-1.26.672-.3 1.44-.45 2.304-.45 1.296 0 2.346.318 3.15.954.816.624 1.266 1.5 1.35 2.628h-2.772a1.402 1.402 0 0 0-.558-1.062c-.336-.288-.786-.432-1.35-.432-.492 0-.888.126-1.188.378-.288.252-.432.618-.432 1.098 0 .336.108.618.324.846.228.216.504.396.828.54.336.132.804.288 1.404.468.816.24 1.482.48 1.998.72s.96.6 1.332 1.08c.372.48.558 1.11.558 1.89 0 .672-.174 1.296-.522 1.872-.348.576-.858 1.038-1.53 1.386-.672.336-1.47.504-2.394.504Zm16.045-10.098V133h-2.538v-1.26c-.324.432-.75.774-1.278 1.026-.516.24-1.08.36-1.692.36-.78 0-1.47-.162-2.07-.486a3.619 3.619 0 0 1-1.422-1.458c-.336-.648-.504-1.416-.504-2.304v-5.85h2.52v5.49c0 .792.198 1.404.594 1.836.396.42.936.63 1.62.63.696 0 1.242-.21 1.638-.63.396-.432.594-1.044.594-1.836v-5.49h2.538Zm5.006 1.44c.324-.456.768-.834 1.332-1.134.576-.312 1.23-.468 1.962-.468.852 0 1.62.21 2.304.63.696.42 1.242 1.02 1.638 1.8.408.768.612 1.662.612 2.682s-.204 1.926-.612 2.718c-.396.78-.942 1.386-1.638 1.818a4.225 4.225 0 0 1-2.304.648c-.732 0-1.38-.15-1.944-.45a4.178 4.178 0 0 1-1.35-1.134v6.174h-2.52v-14.724h2.52v1.44Zm5.274 3.51c0-.6-.126-1.116-.378-1.548a2.463 2.463 0 0 0-.972-1.008 2.552 2.552 0 0 0-1.296-.342c-.456 0-.888.12-1.296.36-.396.228-.72.564-.972 1.008-.24.444-.36.966-.36 1.566 0 .6.12 1.122.36 1.566.252.444.576.786.972 1.026.408.228.84.342 1.296.342.468 0 .9-.12 1.296-.36.408-.24.732-.582.972-1.026.252-.444.378-.972.378-1.584Zm6.925-3.51c.324-.456.768-.834 1.332-1.134.576-.312 1.23-.468 1.962-.468.852 0 1.62.21 2.304.63.696.42 1.242 1.02 1.638 1.8.408.768.612 1.662.612 2.682s-.204 1.926-.612 2.718c-.396.78-.942 1.386-1.638 1.818a4.225 4.225 0 0 1-2.304.648c-.732 0-1.38-.15-1.944-.45a4.178 4.178 0 0 1-1.35-1.134v6.174h-2.52v-14.724h2.52v1.44Zm5.274 3.51c0-.6-.126-1.116-.378-1.548a2.463 2.463 0 0 0-.972-1.008 2.552 2.552 0 0 0-1.296-.342c-.456 0-.888.12-1.296.36-.396.228-.72.564-.972 1.008-.24.444-.36.966-.36 1.566 0 .6.12 1.122.36 1.566.252.444.576.786.972 1.026.408.228.84.342 1.296.342.468 0 .9-.12 1.296-.36.408-.24.732-.582.972-1.026.252-.444.378-.972.378-1.584Zm8.834 5.184c-.96 0-1.824-.21-2.592-.63a4.726 4.726 0 0 1-1.818-1.818c-.432-.78-.648-1.68-.648-2.7 0-1.02.222-1.92.666-2.7a4.69 4.69 0 0 1 1.854-1.8c.78-.432 1.65-.648 2.61-.648s1.83.216 2.61.648c.78.42 1.392 1.02 1.836 1.8.456.78.684 1.68.684 2.7 0 1.02-.234 1.92-.702 2.7a4.783 4.783 0 0 1-1.872 1.818c-.78.42-1.656.63-2.628.63Zm0-2.196c.456 0 .882-.108 1.278-.324.408-.228.732-.564.972-1.008.24-.444.36-.984.36-1.62 0-.948-.252-1.674-.756-2.178a2.413 2.413 0 0 0-1.818-.774c-.72 0-1.326.258-1.818.774-.48.504-.72 1.23-.72 2.178s.234 1.68.702 2.196c.48.504 1.08.756 1.8.756Zm9.57-6.39a3.567 3.567 0 0 1 1.26-1.242c.528-.3 1.128-.45 1.8-.45v2.646h-.666c-.792 0-1.392.186-1.8.558-.396.372-.594 1.02-.594 1.944V133h-2.52v-9.972h2.52v1.548Zm7.691.522v4.824c0 .336.078.582.234.738.168.144.444.216.828.216h1.17V133h-1.584c-2.124 0-3.186-1.032-3.186-3.096v-4.806h-1.188v-2.07h1.188v-2.466h2.538v2.466h2.232v2.07h-2.232ZM279.819 350.126a6.51 6.51 0 0 1-3.24-.828 6.202 6.202 0 0 1-2.34-2.286c-.576-.984-.864-2.094-.864-3.33 0-1.224.288-2.322.864-3.294a6.162 6.162 0 0 1 2.34-2.304 6.51 6.51 0 0 1 3.24-.828c1.188 0 2.268.276 3.24.828a6.033 6.033 0 0 1 2.322 2.304c.576.972.864 2.07.864 3.294 0 1.236-.288 2.346-.864 3.33a6.07 6.07 0 0 1-2.322 2.286 6.51 6.51 0 0 1-3.24.828Zm0-2.25c.756 0 1.422-.168 1.998-.504a3.577 3.577 0 0 0 1.35-1.476c.324-.636.486-1.374.486-2.214 0-.84-.162-1.572-.486-2.196-.324-.636-.774-1.122-1.35-1.458-.576-.336-1.242-.504-1.998-.504s-1.428.168-2.016.504c-.576.336-1.026.822-1.35 1.458-.324.624-.486 1.356-.486 2.196 0 .84.162 1.578.486 2.214a3.577 3.577 0 0 0 1.35 1.476c.588.336 1.26.504 2.016.504Zm12.459-.198 2.52-7.65h2.682L293.79 350h-3.06l-3.672-9.972h2.7l2.52 7.65Zm15.887-2.88c0 .36-.024.684-.072.972h-7.29c.06.72.312 1.284.756 1.692.444.408.99.612 1.638.612.936 0 1.602-.402 1.998-1.206h2.718a4.588 4.588 0 0 1-1.656 2.376c-.816.612-1.818.918-3.006.918-.96 0-1.824-.21-2.592-.63a4.637 4.637 0 0 1-1.782-1.818c-.42-.78-.63-1.68-.63-2.7 0-1.032.21-1.938.63-2.718a4.396 4.396 0 0 1 1.764-1.8c.756-.42 1.626-.63 2.61-.63.948 0 1.794.204 2.538.612.756.408 1.338.99 1.746 1.746.42.744.63 1.602.63 2.574Zm-2.61-.72c-.012-.648-.246-1.164-.702-1.548-.456-.396-1.014-.594-1.674-.594-.624 0-1.152.192-1.584.576-.42.372-.678.894-.774 1.566h4.734Zm6.97-2.502a3.567 3.567 0 0 1 1.26-1.242c.528-.3 1.128-.45 1.8-.45v2.646h-.666c-.792 0-1.392.186-1.8.558-.396.372-.594 1.02-.594 1.944V350h-2.52v-9.972h2.52v1.548Zm8.573 8.586c-.816 0-1.548-.144-2.196-.432-.648-.3-1.164-.702-1.548-1.206a3.069 3.069 0 0 1-.612-1.674h2.538c.048.384.234.702.558.954.336.252.75.378 1.242.378.48 0 .852-.096 1.116-.288.276-.192.414-.438.414-.738 0-.324-.168-.564-.504-.72-.324-.168-.846-.348-1.566-.54-.744-.18-1.356-.366-1.836-.558a3.263 3.263 0 0 1-1.224-.882c-.336-.396-.504-.93-.504-1.602 0-.552.156-1.056.468-1.512.324-.456.78-.816 1.368-1.08.6-.264 1.302-.396 2.106-.396 1.188 0 2.136.3 2.844.9.708.588 1.098 1.386 1.17 2.394h-2.412a1.265 1.265 0 0 0-.504-.936c-.288-.24-.678-.36-1.17-.36-.456 0-.81.084-1.062.252a.81.81 0 0 0-.36.702c0 .336.168.594.504.774.336.168.858.342 1.566.522.72.18 1.314.366 1.782.558.468.192.87.492 1.206.9.348.396.528.924.54 1.584 0 .576-.162 1.092-.486 1.548-.312.456-.768.816-1.368 1.08-.588.252-1.278.378-2.07.378Zm15.263-5.364c0 .36-.024.684-.072.972h-7.29c.06.72.312 1.284.756 1.692.444.408.99.612 1.638.612.936 0 1.602-.402 1.998-1.206h2.718a4.588 4.588 0 0 1-1.656 2.376c-.816.612-1.818.918-3.006.918-.96 0-1.824-.21-2.592-.63a4.637 4.637 0 0 1-1.782-1.818c-.42-.78-.63-1.68-.63-2.7 0-1.032.21-1.938.63-2.718a4.396 4.396 0 0 1 1.764-1.8c.756-.42 1.626-.63 2.61-.63.948 0 1.794.204 2.538.612.756.408 1.338.99 1.746 1.746.42.744.63 1.602.63 2.574Zm-2.61-.72c-.012-.648-.246-1.164-.702-1.548-.456-.396-1.014-.594-1.674-.594-.624 0-1.152.192-1.584.576-.42.372-.678.894-.774 1.566h4.734Zm3.801.9c0-1.008.198-1.902.594-2.682.408-.78.954-1.38 1.638-1.8.696-.42 1.47-.63 2.322-.63.744 0 1.392.15 1.944.45.564.3 1.014.678 1.35 1.134v-1.422h2.538V350H345.4v-1.458c-.324.468-.774.858-1.35 1.17-.564.3-1.218.45-1.962.45-.84 0-1.608-.216-2.304-.648-.684-.432-1.23-1.038-1.638-1.818-.396-.792-.594-1.698-.594-2.718Zm7.848.036c0-.612-.12-1.134-.36-1.566a2.463 2.463 0 0 0-.972-1.008 2.548 2.548 0 0 0-1.314-.36c-.468 0-.9.114-1.296.342-.396.228-.72.564-.972 1.008-.24.432-.36.948-.36 1.548 0 .6.12 1.128.36 1.584.252.444.576.786.972 1.026.408.24.84.36 1.296.36a2.65 2.65 0 0 0 1.314-.342c.408-.24.732-.576.972-1.008.24-.444.36-.972.36-1.584Zm8.815 5.148c-.816 0-1.548-.144-2.196-.432-.648-.3-1.164-.702-1.548-1.206a3.069 3.069 0 0 1-.612-1.674h2.538c.048.384.234.702.558.954.336.252.75.378 1.242.378.48 0 .852-.096 1.116-.288.276-.192.414-.438.414-.738 0-.324-.168-.564-.504-.72-.324-.168-.846-.348-1.566-.54-.744-.18-1.356-.366-1.836-.558a3.263 3.263 0 0 1-1.224-.882c-.336-.396-.504-.93-.504-1.602 0-.552.156-1.056.468-1.512.324-.456.78-.816 1.368-1.08.6-.264 1.302-.396 2.106-.396 1.188 0 2.136.3 2.844.9.708.588 1.098 1.386 1.17 2.394h-2.412a1.265 1.265 0 0 0-.504-.936c-.288-.24-.678-.36-1.17-.36-.456 0-.81.084-1.062.252a.81.81 0 0 0-.36.702c0 .336.168.594.504.774.336.168.858.342 1.566.522.72.18 1.314.366 1.782.558.468.192.87.492 1.206.9.348.396.528.924.54 1.584 0 .576-.162 1.092-.486 1.548-.312.456-.768.816-1.368 1.08-.588.252-1.278.378-2.07.378Zm-92.298 14.274c1.32 0 2.478.258 3.474.774a5.446 5.446 0 0 1 2.322 2.214c.552.948.828 2.052.828 3.312 0 1.26-.276 2.364-.828 3.312-.54.936-1.314 1.662-2.322 2.178-.996.516-2.154.774-3.474.774h-4.392v-12.564h4.392Zm-.09 10.422c1.32 0 2.34-.36 3.06-1.08.72-.72 1.08-1.734 1.08-3.042 0-1.308-.36-2.328-1.08-3.06-.72-.744-1.74-1.116-3.06-1.116h-1.782v8.298h1.782Zm17.871-3.06c0 .36-.024.684-.072.972h-7.29c.06.72.312 1.284.756 1.692.444.408.99.612 1.638.612.936 0 1.602-.402 1.998-1.206h2.718a4.588 4.588 0 0 1-1.656 2.376c-.816.612-1.818.918-3.006.918-.96 0-1.824-.21-2.592-.63a4.637 4.637 0 0 1-1.782-1.818c-.42-.78-.63-1.68-.63-2.7 0-1.032.21-1.938.63-2.718a4.396 4.396 0 0 1 1.764-1.8c.756-.42 1.626-.63 2.61-.63.948 0 1.794.204 2.538.612.756.408 1.338.99 1.746 1.746.42.744.63 1.602.63 2.574Zm-2.61-.72c-.012-.648-.246-1.164-.702-1.548-.456-.396-1.014-.594-1.674-.594-.624 0-1.152.192-1.584.576-.42.372-.678.894-.774 1.566h4.734Zm8.607 3.6 2.52-7.65h2.682l-3.69 9.972h-3.06l-3.672-9.972h2.7l2.52 7.65Zm15.887-2.88c0 .36-.024.684-.072.972h-7.29c.06.72.312 1.284.756 1.692.444.408.99.612 1.638.612.936 0 1.602-.402 1.998-1.206h2.718a4.588 4.588 0 0 1-1.656 2.376c-.816.612-1.818.918-3.006.918-.96 0-1.824-.21-2.592-.63a4.637 4.637 0 0 1-1.782-1.818c-.42-.78-.63-1.68-.63-2.7 0-1.032.21-1.938.63-2.718a4.396 4.396 0 0 1 1.764-1.8c.756-.42 1.626-.63 2.61-.63.948 0 1.794.204 2.538.612.756.408 1.338.99 1.746 1.746.42.744.63 1.602.63 2.574Zm-2.61-.72c-.012-.648-.246-1.164-.702-1.548-.456-.396-1.014-.594-1.674-.594-.624 0-1.152.192-1.584.576-.42.372-.678.894-.774 1.566h4.734Zm6.97-7.398V377h-2.52v-13.32h2.52Zm6.917 13.482c-.96 0-1.824-.21-2.592-.63a4.726 4.726 0 0 1-1.818-1.818c-.432-.78-.648-1.68-.648-2.7 0-1.02.222-1.92.666-2.7a4.69 4.69 0 0 1 1.854-1.8c.78-.432 1.65-.648 2.61-.648s1.83.216 2.61.648c.78.42 1.392 1.02 1.836 1.8.456.78.684 1.68.684 2.7 0 1.02-.234 1.92-.702 2.7a4.783 4.783 0 0 1-1.872 1.818c-.78.42-1.656.63-2.628.63Zm0-2.196c.456 0 .882-.108 1.278-.324.408-.228.732-.564.972-1.008.24-.444.36-.984.36-1.62 0-.948-.252-1.674-.756-2.178a2.413 2.413 0 0 0-1.818-.774c-.72 0-1.326.258-1.818.774-.48.504-.72 1.23-.72 2.178s.234 1.68.702 2.196c.48.504 1.08.756 1.8.756Zm9.571-6.498c.324-.456.768-.834 1.332-1.134.576-.312 1.23-.468 1.962-.468.852 0 1.62.21 2.304.63.696.42 1.242 1.02 1.638 1.8.408.768.612 1.662.612 2.682s-.204 1.926-.612 2.718c-.396.78-.942 1.386-1.638 1.818a4.225 4.225 0 0 1-2.304.648c-.732 0-1.38-.15-1.944-.45a4.178 4.178 0 0 1-1.35-1.134v6.174h-2.52v-14.724h2.52v1.44Zm5.274 3.51c0-.6-.126-1.116-.378-1.548a2.463 2.463 0 0 0-.972-1.008 2.552 2.552 0 0 0-1.296-.342c-.456 0-.888.12-1.296.36-.396.228-.72.564-.972 1.008-.24.444-.36.966-.36 1.566 0 .6.12 1.122.36 1.566.252.444.576.786.972 1.026.408.228.84.342 1.296.342.468 0 .9-.12 1.296-.36.408-.24.732-.582.972-1.026.252-.444.378-.972.378-1.584Zm16.789-5.094c1.224 0 2.208.378 2.952 1.134.756.744 1.134 1.788 1.134 3.132V377h-2.52v-5.508c0-.78-.198-1.374-.594-1.782-.396-.42-.936-.63-1.62-.63s-1.23.21-1.638.63c-.396.408-.594 1.002-.594 1.782V377h-2.52v-5.508c0-.78-.198-1.374-.594-1.782-.396-.42-.936-.63-1.62-.63-.696 0-1.248.21-1.656.63-.396.408-.594 1.002-.594 1.782V377h-2.52v-9.972h2.52v1.206c.324-.42.738-.75 1.242-.99.516-.24 1.08-.36 1.692-.36.78 0 1.476.168 2.088.504a3.412 3.412 0 0 1 1.422 1.404 3.626 3.626 0 0 1 1.404-1.386 4.073 4.073 0 0 1 2.016-.522Zm15.748 4.914c0 .36-.024.684-.072.972h-7.29c.06.72.312 1.284.756 1.692.444.408.99.612 1.638.612.936 0 1.602-.402 1.998-1.206h2.718a4.588 4.588 0 0 1-1.656 2.376c-.816.612-1.818.918-3.006.918-.96 0-1.824-.21-2.592-.63a4.637 4.637 0 0 1-1.782-1.818c-.42-.78-.63-1.68-.63-2.7 0-1.032.21-1.938.63-2.718a4.396 4.396 0 0 1 1.764-1.8c.756-.42 1.626-.63 2.61-.63.948 0 1.794.204 2.538.612.756.408 1.338.99 1.746 1.746.42.744.63 1.602.63 2.574Zm-2.61-.72c-.012-.648-.246-1.164-.702-1.548-.456-.396-1.014-.594-1.674-.594-.624 0-1.152.192-1.584.576-.42.372-.678.894-.774 1.566h4.734Zm9.975-4.194c1.188 0 2.148.378 2.88 1.134.732.744 1.098 1.788 1.098 3.132V377h-2.52v-5.508c0-.792-.198-1.398-.594-1.818-.396-.432-.936-.648-1.62-.648-.696 0-1.248.216-1.656.648-.396.42-.594 1.026-.594 1.818V377h-2.52v-9.972h2.52v1.242a3.417 3.417 0 0 1 1.278-1.008 3.96 3.96 0 0 1 1.728-.378Zm9.308 2.214v4.824c0 .336.078.582.234.738.168.144.444.216.828.216h1.17V377h-1.584c-2.124 0-3.186-1.032-3.186-3.096v-4.806h-1.188v-2.07h1.188v-2.466h2.538v2.466h2.232v2.07h-2.232Z"/><path stroke="#fff" stroke-linecap="round" stroke-width="2" d="M204 368v-24m0 0-6 6.479m6-6.479 6 6.479"/></svg>