<?xml version="1.0" encoding="UTF-8"?>
<svg xmlns="http://www.w3.org/2000/svg" xmlns:xlink="http://www.w3.org/1999/xlink" width="129px" height="64px" viewBox="0 0 128 64" version="1.1">
<g id="surface1">
<path style=" stroke:none;fill-rule:nonzero;fill:rgb(0%,0%,0%);fill-opacity:1;" d="M 103.238281 14.53125 C 100.980469 15.539062 100.21875 17.878906 97.960938 31.15625 C 97.523438 33.6875 97.089844 36.191406 96.980469 36.679688 L 96.789062 37.578125 L 98.121094 37.496094 L 99.457031 37.414062 L 100.054688 34.148438 C 100.382812 32.355469 100.652344 30.855469 100.679688 30.800781 C 100.679688 30.695312 103.59375 30.75 103.726562 30.882812 C 103.808594 30.964844 103.59375 32.433594 103.265625 34.148438 C 102.613281 37.550781 102.613281 37.550781 104.246094 37.550781 C 105.277344 37.550781 105.332031 37.414062 106.394531 31.15625 C 106.855469 28.328125 107.484375 24.734375 107.78125 23.15625 C 108.460938 19.457031 108.515625 16.300781 107.917969 15.347656 C 107.128906 14.148438 104.980469 13.769531 103.238281 14.53125 Z M 105.796875 17.6875 C 105.878906 18.910156 104.570312 27.726562 104.21875 28.300781 C 104.109375 28.488281 103.429688 28.570312 102.53125 28.515625 L 101.0625 28.433594 L 101.6875 24.898438 C 103.15625 16.597656 103.320312 16.21875 104.871094 16.382812 C 105.660156 16.460938 105.714844 16.542969 105.796875 17.6875 Z M 105.796875 17.6875 "/>
<path style=" stroke:none;fill-rule:nonzero;fill:rgb(0%,0%,0%);fill-opacity:1;" d="M 49.660156 17.0625 C 49.386719 18.53125 48.488281 23.644531 47.617188 28.433594 C 46.75 33.222656 46.09375 37.222656 46.175781 37.332031 C 46.339844 37.632812 48.382812 37.605469 48.570312 37.304688 C 48.652344 37.171875 49.089844 35.046875 49.523438 32.597656 C 50.800781 25.660156 50.828125 25.660156 50.855469 31.890625 L 50.882812 37.550781 L 51.566406 37.550781 C 52.382812 37.550781 52.40625 37.523438 54.285156 32.273438 C 55.945312 27.59375 56.570312 26.121094 56.570312 27.074219 C 56.570312 27.375 56.164062 29.769531 55.671875 32.382812 C 55.183594 34.992188 54.828125 37.222656 54.882812 37.332031 C 54.992188 37.550781 57.414062 37.632812 57.414062 37.441406 C 57.414062 37.386719 57.90625 34.667969 58.476562 31.402344 C 59.074219 28.109375 59.945312 23.183594 60.40625 20.40625 C 60.871094 17.632812 61.304688 15.15625 61.386719 14.882812 C 61.523438 14.503906 61.359375 14.421875 60.355469 14.421875 L 59.183594 14.421875 L 57.222656 19.375 C 56.164062 22.121094 54.882812 25.359375 54.421875 26.585938 C 53.960938 27.835938 53.46875 28.84375 53.359375 28.84375 C 53.0625 28.84375 52.789062 26.066406 52.789062 23.265625 C 52.789062 22.039062 52.707031 19.539062 52.597656 17.742188 L 52.433594 14.421875 L 50.121094 14.421875 Z M 49.660156 17.0625 "/>
<path style=" stroke:none;fill-rule:nonzero;fill:rgb(0%,0%,0%);fill-opacity:1;" d="M 64.625 14.75 C 64.570312 14.9375 64.191406 17.007812 63.808594 19.320312 C 63.429688 21.632812 62.558594 26.585938 61.878906 30.3125 C 61.222656 34.039062 60.679688 37.199219 60.679688 37.332031 C 60.679688 37.605469 66.855469 37.632812 67.019531 37.332031 C 67.101562 37.222656 67.238281 36.625 67.347656 35.972656 L 67.539062 34.828125 L 65.742188 34.828125 C 64.21875 34.828125 63.945312 34.75 63.945312 34.339844 C 63.945312 34.09375 64.21875 32.191406 64.542969 30.121094 L 65.144531 26.394531 L 66.828125 26.394531 C 68.460938 26.394531 68.515625 26.367188 68.625 25.632812 C 68.816406 24.382812 68.625 24.21875 67.046875 24.21875 C 66.230469 24.21875 65.578125 24.191406 65.578125 24.136719 C 65.578125 24.109375 65.878906 22.367188 66.257812 20.300781 C 66.640625 18.203125 66.9375 16.460938 66.9375 16.40625 C 66.9375 16.355469 67.78125 16.328125 68.816406 16.328125 C 70.53125 16.328125 70.695312 16.273438 70.855469 15.699219 C 71.183594 14.421875 71.183594 14.421875 67.890625 14.421875 C 65.605469 14.421875 64.707031 14.503906 64.625 14.75 Z M 64.625 14.75 "/>
<path style=" stroke:none;fill-rule:nonzero;fill:rgb(0%,0%,0%);fill-opacity:1;" d="M 73.359375 14.882812 C 73.304688 15.15625 72.925781 17.277344 72.515625 19.59375 C 71.671875 24.542969 69.714844 35.726562 69.496094 36.789062 C 69.359375 37.550781 69.359375 37.550781 70.695312 37.550781 L 72.027344 37.550781 L 72.460938 34.882812 C 73.851562 26.910156 74.148438 25.304688 74.339844 25.304688 C 74.476562 25.304688 74.558594 25.386719 74.585938 25.496094 C 74.585938 25.632812 74.910156 28.355469 75.320312 31.566406 L 76.054688 37.414062 L 77.199219 37.496094 C 78.203125 37.578125 78.367188 37.496094 78.476562 36.953125 C 78.613281 36.40625 79.375 32.027344 81.796875 18.09375 C 82.011719 16.734375 82.285156 15.375 82.367188 15.019531 C 82.503906 14.449219 82.421875 14.421875 81.171875 14.421875 L 79.835938 14.421875 L 79.101562 18.695312 C 77.796875 26.203125 77.46875 27.78125 77.25 27.566406 C 77.0625 27.375 75.917969 16.597656 75.917969 15.019531 C 75.917969 14.503906 75.78125 14.421875 74.722656 14.421875 C 73.796875 14.421875 73.46875 14.53125 73.359375 14.882812 Z M 73.359375 14.882812 "/>
<path style=" stroke:none;fill-rule:nonzero;fill:rgb(0%,0%,0%);fill-opacity:1;" d="M 84.542969 14.613281 C 84.460938 14.75 84.355469 15.265625 84.300781 15.78125 L 84.21875 16.734375 L 85.578125 16.816406 C 86.3125 16.871094 86.9375 16.925781 86.964844 16.953125 C 86.992188 16.980469 86.722656 18.585938 86.367188 20.542969 C 85.332031 26.066406 83.539062 36.625 83.539062 37.117188 C 83.539062 37.851562 85.714844 37.632812 85.960938 36.871094 C 86.09375 36.570312 86.9375 31.972656 87.890625 26.667969 C 88.816406 21.359375 89.605469 16.980469 89.632812 16.953125 C 89.660156 16.925781 90.339844 16.871094 91.101562 16.84375 C 91.890625 16.816406 92.515625 16.707031 92.515625 16.625 C 92.515625 16.542969 92.625 16 92.761719 15.429688 L 93.007812 14.421875 L 88.84375 14.421875 C 86.53125 14.421875 84.597656 14.503906 84.542969 14.613281 Z M 84.542969 14.613281 "/>
<path style=" stroke:none;fill-rule:nonzero;fill:rgb(0%,0%,0%);fill-opacity:1;" d="M 112.542969 14.75 C 112.433594 15.046875 111.265625 21.6875 110.882812 24.164062 C 110.722656 25.035156 110.285156 27.511719 109.359375 32.734375 C 108.898438 35.265625 108.570312 37.359375 108.625 37.414062 C 108.679688 37.441406 109.25 37.414062 109.90625 37.304688 L 111.128906 37.144531 L 111.726562 33.742188 C 112.460938 29.632812 114.777344 16.542969 114.992188 15.292969 L 115.128906 14.421875 L 113.878906 14.421875 C 113.117188 14.421875 112.597656 14.558594 112.542969 14.75 Z M 112.542969 14.75 "/>
<path style=" stroke:none;fill-rule:nonzero;fill:rgb(0%,0%,0%);fill-opacity:1;" d="M 24.21875 24.789062 C 21.277344 25.035156 17.199219 26.695312 14.367188 28.761719 C 13.0625 29.714844 12.488281 30.640625 13.6875 29.878906 C 14.800781 29.144531 18.339844 27.808594 20.300781 27.375 C 26.121094 26.09375 32.300781 26.800781 37.6875 29.441406 L 39.320312 30.230469 L 38.039062 29.035156 C 34.828125 26.011719 29.359375 24.328125 24.21875 24.789062 Z M 24.21875 24.789062 "/>
<path style=" stroke:none;fill-rule:nonzero;fill:rgb(0%,0%,0%);fill-opacity:1;" d="M 23.265625 28.136719 C 18.421875 30.367188 18.09375 37.007812 22.695312 39.835938 C 27.019531 42.53125 32.925781 39.238281 32.925781 34.175781 C 32.925781 29.332031 27.699219 26.066406 23.265625 28.136719 Z M 27.726562 28.570312 C 30.800781 29.441406 32.652344 32.625 31.835938 35.644531 C 31.617188 36.460938 31.101562 37.277344 30.230469 38.121094 C 28.109375 40.273438 25.523438 40.515625 23.019531 38.855469 C 21.550781 37.90625 20.707031 36.488281 20.488281 34.585938 C 20.382812 33.523438 20.488281 32.953125 21.089844 31.617188 C 21.988281 29.605469 22.339844 29.277344 24.082031 28.761719 C 25.714844 28.246094 26.503906 28.21875 27.726562 28.570312 Z M 27.726562 28.570312 "/>
<path style=" stroke:none;fill-rule:nonzero;fill:rgb(0%,0%,0%);fill-opacity:1;" d="M 26.285156 30.449219 C 26.777344 31.402344 26.53125 32.570312 25.6875 33.414062 C 24.980469 34.09375 22.667969 34.066406 22.148438 33.359375 C 21.796875 32.871094 21.769531 32.925781 21.769531 34.148438 C 21.769531 36.515625 23.375 38.121094 25.851562 38.3125 C 27.59375 38.449219 28.515625 38.066406 29.769531 36.761719 C 30.75 35.753906 31.019531 33.824219 30.394531 32.355469 C 29.878906 31.074219 28.355469 29.933594 26.9375 29.742188 L 25.851562 29.578125 Z M 26.285156 30.449219 "/>
<path style=" stroke:none;fill-rule:nonzero;fill:rgb(0%,0%,0%);fill-opacity:1;" d="M 91.484375 35.375 C 90.722656 36.625 91.402344 37.632812 92.789062 37.304688 C 93.523438 37.117188 94.066406 36 93.796875 35.265625 C 93.550781 34.613281 91.917969 34.695312 91.484375 35.375 Z M 91.484375 35.375 "/>
<path style=" stroke:none;fill-rule:nonzero;fill:rgb(0%,0%,0%);fill-opacity:1;" d="M 36.597656 38.800781 C 30.449219 42.285156 22.367188 42.449219 16.054688 39.183594 C 14.53125 38.394531 14.230469 38.285156 14.828125 38.777344 C 15.945312 39.699219 18.421875 41.007812 20.328125 41.660156 C 22.367188 42.394531 26.828125 42.640625 29.171875 42.203125 C 31.917969 41.660156 35.808594 39.917969 37.960938 38.257812 C 38.800781 37.605469 38.367188 37.769531 36.597656 38.800781 Z M 36.597656 38.800781 "/>
<path style=" stroke:none;fill-rule:nonzero;fill:rgb(0%,0%,0%);fill-opacity:1;" d="M 48.082031 42.449219 C 47.617188 42.828125 47.292969 43.457031 47.101562 44.382812 C 46.695312 46.203125 46.667969 46.066406 47.890625 47.484375 C 49.0625 48.84375 49.144531 49.117188 48.679688 50.695312 C 48.460938 51.539062 48.300781 51.726562 47.808594 51.644531 C 47.320312 51.59375 47.210938 51.402344 47.238281 50.667969 C 47.292969 49.90625 47.210938 49.796875 46.640625 49.796875 C 46.039062 49.796875 45.988281 49.90625 45.988281 50.992188 C 45.988281 52.433594 46.722656 53.144531 47.863281 52.871094 C 48.925781 52.625 49.441406 52.054688 49.769531 50.75 C 50.257812 48.816406 50.148438 48.246094 49.089844 47.074219 C 48.136719 46.039062 48.109375 45.90625 48.246094 44.570312 C 48.355469 43.808594 48.570312 43.074219 48.761719 42.9375 C 49.46875 42.503906 49.796875 42.722656 49.796875 43.671875 C 49.796875 44.433594 49.90625 44.625 50.339844 44.625 C 50.800781 44.625 50.882812 44.433594 50.882812 43.539062 C 50.882812 41.90625 49.46875 41.359375 48.082031 42.449219 Z M 48.082031 42.449219 "/>
<path style=" stroke:none;fill-rule:nonzero;fill:rgb(0%,0%,0%);fill-opacity:1;" d="M 52.136719 42.339844 C 51.890625 42.964844 51.917969 42.992188 52.652344 42.992188 C 53.035156 42.992188 53.332031 43.101562 53.332031 43.238281 C 53.332031 43.347656 52.980469 45.496094 52.515625 47.972656 C 52.082031 50.476562 51.699219 52.570312 51.699219 52.652344 C 51.699219 52.734375 51.945312 52.789062 52.246094 52.789062 C 52.542969 52.789062 52.789062 52.761719 52.789062 52.707031 C 52.789062 52.679688 53.171875 50.558594 53.605469 48.027344 C 54.039062 45.46875 54.421875 43.320312 54.421875 43.183594 C 54.421875 43.074219 54.800781 42.992188 55.238281 42.992188 C 55.863281 42.992188 56.054688 42.882812 56.054688 42.449219 C 56.054688 41.960938 55.863281 41.90625 54.175781 41.90625 C 52.707031 41.90625 52.273438 42.011719 52.136719 42.339844 Z M 52.136719 42.339844 "/>
<path style=" stroke:none;fill-rule:nonzero;fill:rgb(0%,0%,0%);fill-opacity:1;" d="M 57.144531 42.148438 C 57.144531 42.230469 56.707031 44.625 56.191406 47.484375 C 55.671875 50.3125 55.238281 52.679688 55.238281 52.707031 C 55.238281 52.761719 55.484375 52.789062 55.753906 52.789062 C 56.300781 52.789062 56.570312 51.945312 57.007812 48.898438 C 57.199219 47.671875 57.25 47.59375 57.933594 47.671875 C 58.613281 47.753906 58.640625 47.808594 58.585938 49.523438 C 58.558594 50.503906 58.476562 51.617188 58.394531 52.027344 C 58.285156 52.652344 58.339844 52.789062 58.777344 52.789062 C 59.429688 52.789062 59.539062 52.355469 59.699219 49.386719 C 59.78125 48.027344 60.027344 46.339844 60.273438 45.605469 C 60.789062 43.890625 60.789062 42.882812 60.246094 42.421875 C 59.808594 42.066406 57.144531 41.824219 57.144531 42.148438 Z M 59.59375 43.726562 C 59.59375 45.117188 59.046875 46.503906 58.476562 46.667969 C 57.605469 46.964844 57.441406 46.53125 57.742188 44.679688 C 58.011719 43.074219 58.066406 42.992188 58.800781 42.992188 C 59.484375 42.992188 59.59375 43.101562 59.59375 43.726562 Z M 59.59375 43.726562 "/>
<path style=" stroke:none;fill-rule:nonzero;fill:rgb(0%,0%,0%);fill-opacity:1;" d="M 63.457031 42.09375 C 62.855469 42.339844 62.367188 43.644531 61.796875 46.503906 C 61.199219 49.523438 61.0625 52.382812 61.496094 52.652344 C 61.660156 52.761719 62.148438 52.84375 62.613281 52.84375 C 64.328125 52.898438 65.144531 51.046875 65.878906 45.46875 C 66.230469 42.9375 66.230469 42.910156 65.605469 42.421875 C 65.007812 41.933594 64.191406 41.796875 63.457031 42.09375 Z M 64.980469 43.617188 C 65.089844 44.460938 64 50.503906 63.617188 51.210938 C 63.375 51.726562 62.449219 51.863281 62.203125 51.457031 C 61.988281 51.128906 63.101562 44.679688 63.566406 43.59375 C 64.027344 42.476562 64.84375 42.476562 64.980469 43.617188 Z M 64.980469 43.617188 "/>
<path style=" stroke:none;fill-rule:nonzero;fill:rgb(0%,0%,0%);fill-opacity:1;" d="M 68.355469 42.148438 C 68.164062 42.257812 67.917969 43.019531 67.753906 43.835938 C 67.617188 44.652344 67.238281 46.722656 66.9375 48.433594 C 66.640625 50.148438 66.3125 51.835938 66.257812 52.164062 C 66.148438 52.652344 66.230469 52.789062 66.640625 52.789062 C 67.238281 52.789062 67.292969 52.597656 67.753906 50.203125 C 68.273438 47.320312 68.328125 47.210938 68.570312 47.617188 C 68.679688 47.808594 68.871094 48.925781 68.980469 50.066406 C 69.171875 52.355469 69.414062 52.953125 69.988281 52.734375 C 70.203125 52.625 70.640625 50.855469 71.238281 47.457031 C 71.726562 44.625 72.109375 42.230469 72.109375 42.121094 C 72.109375 41.933594 71.402344 41.988281 71.183594 42.203125 C 71.101562 42.257812 70.855469 43.484375 70.613281 44.898438 C 69.933594 48.871094 69.605469 48.707031 69.25 44.300781 C 69.0625 42.121094 68.925781 41.796875 68.355469 42.148438 Z M 68.355469 42.148438 "/>
<path style=" stroke:none;fill-rule:nonzero;fill:rgb(0%,0%,0%);fill-opacity:1;" d="M 74.667969 42.230469 C 73.878906 42.613281 73.578125 43.347656 72.898438 46.585938 C 72.246094 49.878906 72.109375 52.082031 72.570312 52.542969 C 73.035156 53.007812 74.503906 52.925781 75.074219 52.382812 C 75.59375 51.945312 76.054688 50.640625 76.433594 48.570312 L 76.679688 47.320312 L 75.699219 47.402344 C 74.75 47.484375 74.09375 48.164062 74.964844 48.164062 C 75.375 48.164062 75.402344 48.355469 75.238281 49.441406 C 75.128906 50.175781 74.9375 50.964844 74.800781 51.210938 C 74.503906 51.78125 73.523438 51.863281 73.304688 51.347656 C 73.117188 50.855469 74.230469 44.40625 74.640625 43.539062 C 75.128906 42.503906 76.027344 42.640625 76.136719 43.753906 C 76.21875 44.433594 76.355469 44.625 76.679688 44.570312 C 77.035156 44.488281 77.144531 44.21875 77.117188 43.429688 C 77.0625 41.988281 76.109375 41.523438 74.667969 42.230469 Z M 74.667969 42.230469 "/>
<path style=" stroke:none;fill-rule:nonzero;fill:rgb(0%,0%,0%);fill-opacity:1;" d="M 79.539062 42.121094 C 79.183594 42.175781 78.910156 42.285156 78.910156 42.339844 C 78.910156 42.640625 77.25 51.863281 77.117188 52.300781 C 76.980469 52.734375 77.171875 52.789062 78.476562 52.789062 C 79.808594 52.789062 80 52.734375 80 52.246094 C 80 51.808594 79.808594 51.699219 79.183594 51.699219 C 78.367188 51.699219 78.339844 51.671875 78.53125 50.667969 C 79.019531 47.78125 79.046875 47.753906 79.78125 47.671875 C 80.734375 47.566406 81.035156 46.800781 80.136719 46.800781 C 79.78125 46.800781 79.429688 46.722656 79.375 46.585938 C 79.320312 46.476562 79.375 45.632812 79.539062 44.679688 C 79.835938 43.019531 79.835938 42.992188 80.734375 42.992188 C 81.414062 42.992188 81.632812 42.882812 81.632812 42.503906 C 81.632812 41.988281 81.035156 41.878906 79.539062 42.121094 Z M 79.539062 42.121094 "/>
<path style=" stroke:none;fill-rule:nonzero;fill:rgb(0%,0%,0%);fill-opacity:1;" d="M 83.511719 42.121094 C 83.183594 42.175781 82.910156 43.046875 82.476562 45.523438 C 82.175781 47.347656 81.742188 49.742188 81.523438 50.828125 C 81.144531 52.816406 81.144531 52.816406 81.742188 52.734375 C 82.230469 52.652344 82.367188 52.355469 82.722656 50.203125 C 83.128906 47.808594 83.15625 47.753906 83.917969 47.671875 L 84.707031 47.566406 L 84.515625 50.175781 C 84.355469 52.625 84.382812 52.789062 84.871094 52.789062 C 85.332031 52.789062 85.386719 52.515625 85.523438 50.394531 C 85.605469 49.089844 85.6875 47.78125 85.660156 47.484375 C 85.660156 47.183594 85.851562 46.449219 86.09375 45.851562 C 86.53125 44.679688 86.640625 43.046875 86.3125 42.558594 C 86.121094 42.230469 84.300781 41.960938 83.511719 42.121094 Z M 85.550781 43.808594 C 85.496094 45.933594 85.117188 46.800781 84.246094 46.800781 C 83.375 46.800781 83.292969 46.667969 83.59375 45.222656 C 84.109375 42.585938 84.054688 42.695312 84.84375 42.777344 C 85.496094 42.855469 85.578125 42.964844 85.550781 43.808594 Z M 85.550781 43.808594 "/>
<path style=" stroke:none;fill-rule:nonzero;fill:rgb(0%,0%,0%);fill-opacity:1;" d="M 91.566406 42.257812 C 91.320312 43.074219 90.066406 50.558594 90.066406 51.320312 C 90.066406 52.679688 91.128906 53.25 92.460938 52.597656 C 93.46875 52.109375 93.824219 51.128906 94.558594 46.800781 C 95.375 42.09375 95.375 42.175781 94.777344 42.175781 C 94.339844 42.175781 94.203125 42.558594 93.769531 45.0625 C 93.496094 46.667969 93.222656 48.355469 93.144531 48.816406 C 92.816406 51.019531 92.515625 51.699219 91.835938 51.699219 C 90.992188 51.699219 90.992188 51.644531 91.835938 46.695312 C 92.21875 44.515625 92.515625 42.640625 92.515625 42.476562 C 92.515625 42.09375 91.699219 41.878906 91.566406 42.257812 Z M 91.566406 42.257812 "/>
<path style=" stroke:none;fill-rule:nonzero;fill:rgb(0%,0%,0%);fill-opacity:1;" d="M 97.742188 42.175781 C 97.089844 42.449219 96.488281 43.59375 96.191406 45.199219 C 96.027344 46.09375 96.109375 46.3125 97.035156 47.320312 C 98.066406 48.488281 98.203125 49.117188 97.824219 50.910156 C 97.6875 51.511719 97.496094 51.699219 96.980469 51.699219 C 96.40625 51.699219 96.328125 51.566406 96.328125 50.722656 C 96.328125 49.960938 96.246094 49.769531 95.863281 49.851562 C 95.539062 49.90625 95.347656 50.230469 95.292969 50.800781 C 95.128906 52.515625 96.109375 53.277344 97.632812 52.625 C 98.3125 52.355469 98.558594 52 98.882812 50.855469 C 99.511719 48.789062 99.429688 48.300781 98.339844 47.074219 C 97.414062 46.039062 97.359375 45.878906 97.46875 44.597656 C 97.660156 42.640625 98.828125 42.011719 98.992188 43.753906 C 99.046875 44.40625 99.210938 44.625 99.617188 44.625 C 100.027344 44.625 100.136719 44.433594 100.136719 43.699219 C 100.136719 42.175781 99.210938 41.605469 97.742188 42.175781 Z M 97.742188 42.175781 "/>
<path style=" stroke:none;fill-rule:nonzero;fill:rgb(0%,0%,0%);fill-opacity:1;" d="M 100.21875 52.109375 C 100.136719 52.355469 100.136719 52.597656 100.21875 52.707031 C 100.488281 52.980469 101.222656 52.542969 101.222656 52.109375 C 101.222656 51.566406 100.433594 51.566406 100.21875 52.109375 Z M 100.21875 52.109375 "/>
</g>
</svg>
