<?xml version="1.0" encoding="UTF-8"?>
<svg version="1.1" viewBox="0 0 900 900" width="40" height="40" xmlns="http://www.w3.org/2000/svg">
<path transform="translate(0)" d="m0 0h900v900h-900z" fill="#FEFEFE"/>
<path transform="translate(326,57)" d="m0 0h368l23 3 18 5 21 9 17 10 14 11 16 16 12 17 9 17 7 21 4 22v21l-3 21-6 20-8 21-8 14-25 50-11 23-8 16-10 21-27 54-10 21-8 11-8 10-11 12-11 9-12 8v34l-3 16-3 10-8 17-9 14-9 10-10 9-15 10-18 8-19 5-7 1h-26l-19-5-17-7-16-10-13-12-9-10-9-14-7-16-4-13-3-14-1-10-41 1-2 6-42 84-10 19-10 21-10 19-10 21-10 19-10 21-9 17-11 23-12 23-8 10-7 6-16 8-12 2h-8l-16-4-12-7-7-6-7-10-12-23-89-178-5-13-3-13v-20l3-15 9-21 19-38 11-23 15-30 11-23 15-30 11-23 14-28 11-23 9-15 11-12 10-8 6-4-1-7v-17l4-13 8-16 24-47 15-29 17-33 14-27 6-9 7-8 11-8z" fill="#403F4D"/>
<path transform="translate(347,105)" d="m0 0h347l18 3 15 5 14 7 16 12 7 7 10 13 8 16 5 19v26l-4 16-9 21-12 24-11 23-24 48-4 10-5-5-14-21-12-14-12-11-15-11-22-12-25-9-22-4-29-1h-289l-10-2-2-5 11-23 10-19 8-16 8-15 8-16 8-15 8-16 14-27 4-7z" fill="#FEFEFE"/>
<path transform="translate(256,314)" d="m0 0h311l23 1 17 3 17 6 16 9 13 10 11 11 10 14 8 17 4 16v20l-3 12-8 16-8 11-12 12-5 4h-2l-7-9-8-8-15-11-17-9-18-6-15-3h-21l-20 4-16 6-13 7-11 8-9 8-7 8-10 14-6 10h-306l9-19 8-16 12-25 10-21 27-54 11-23 7-11 9-7 10-4z" fill="#FEFEFE"/>
<path transform="translate(145,543)" d="m0 0h205l-1 5-117 234-7 12-2 2-5-1-6-8-95-190-4-11-1-5v-9l4-10 7-9 8-6 8-3z" fill="#FEFEFE"/>
<path transform="translate(666,521)" d="m0 0h2l1 3v30l-3 16-3 10-8 17-9 14-9 10-10 9-15 10-18 8-19 5-7 1h-26l-19-5-17-7-16-10-13-12-9-10-9-14-7-16-4-13-3-14-1-10 158-1 18-3 15-4 16-6z" fill="#00B0E4"/>
<path transform="translate(547,429)" d="m0 0h21l19 4 16 6 15 8 12 9 10 9 8 9-1 4-8 5-18 8-12 3-7 1-18 1h-121l-8-1 5-10 10-14 11-12 11-9 13-8 13-6 13-4z" fill="#00B0E4"/>
</svg>
